<svg width="934" height="934" viewBox="0 0 934 934" fill="none" xmlns="http://www.w3.org/2000/svg">
<path d="M518.96 752H839.38C849.605 752 859.392 748.379 868.246 743.27C877.102 738.161 886.231 731.748 891.34 722.898C896.451 714.051 900.005 704.012 900 693.798C899.995 683.58 896.459 673.545 891.34 664.702L674.84 289.311C669.731 280.464 663.486 274.047 654.634 268.939C645.78 263.833 633.102 260.209 622.88 260.209C612.658 260.209 602.866 263.833 594.014 268.939C585.16 274.047 578.917 280.464 573.806 289.311L518.96 385.341L409.266 199.093C404.152 190.248 397.916 180.927 389.06 175.821C380.204 170.712 370.418 170 360.194 170C349.969 170 340.182 170.712 331.326 175.821C322.472 180.927 313.348 190.248 308.234 199.093L39.7734 664.702C34.6552 673.545 34.0045 683.58 34 693.798C33.9955 704.012 34.663 714.05 39.7734 722.898C44.8838 731.746 54.0117 738.161 62.8666 743.27C71.7217 748.379 81.5081 752 91.7334 752H293.8C373.866 752 432.144 715.792 472.774 647.24L570.92 475.549L622.88 385.341L781.646 658.879H570.92L518.96 752ZM290.914 658.879H149.466L360.194 292.22L467 475.549L396.251 599.878C369.27 644.358 338.507 658.879 290.914 658.879Z" fill="black"/>
</svg>
