<svg width="80" height="80" viewBox="0 0 80 80" fill="none" xmlns="http://www.w3.org/2000/svg">
<path d="M80 0L72.4988 72.2216L39.9995 80L7.49959 72.2216L0 0H80ZM64.8848 14.6851H39.9702H14.6144L15.827 23.4066H39.9702H41.3264L39.9702 23.9083L16.7094 32.5199L17.4808 41.0449L39.9702 41.1097L52.0239 41.1436L51.2523 52.5106L39.9701 55.3341V55.3251L39.8776 55.348L28.9818 52.9031L28.3206 45.8471H28.2845H18.1781H18.1425L19.4654 59.4686L39.9704 64.8586V64.8489L40.0074 64.8586L60.4025 59.5667L63.0481 32.5199H39.9704H39.9135L39.9704 32.498L63.8935 23.4066L64.8848 14.6851Z" fill="#FFB12B"/>
</svg>
