<svg width="80" height="80" viewBox="0 0 80 80" fill="none" xmlns="http://www.w3.org/2000/svg">
<path d="M79.8041 10.8448C79.4716 8.69195 78.7219 6.65724 77.6281 4.94664C77.4059 4.5875 77.1736 4.268 76.9195 3.9439C74.9736 1.43755 72.2667 0 69.4928 0H10.5069C7.70203 0 5.06406 1.40131 3.07891 3.9453C2.82766 4.2664 2.59469 4.5891 2.36406 4.95965C1.275 6.66305 0.528594 8.69495 0.204062 10.8508C0.0684375 11.6974 0 12.5746 0 13.462V66.5392C0 68.3857 0.292813 70.1838 0.873281 71.8932C1.37563 73.4112 2.13781 74.8504 3.07828 76.0547C3.31516 76.3568 3.55047 76.6355 3.80172 76.9071C5.68203 78.9022 8.06297 80 10.5069 80H69.4928C71.9525 80 74.3311 78.898 76.2064 76.8851C76.457 76.6252 76.6894 76.3524 76.9217 76.0547C77.8308 74.8912 78.5533 73.5544 79.0727 72.0802L79.1411 71.87C79.7108 70.193 80 68.4007 80 66.5394V13.462C80 12.5862 79.9341 11.7032 79.8041 10.8448ZM5.44109 8.59125C5.58969 8.31259 5.77937 8.02653 6.02141 7.71403C7.22281 6.17559 8.81609 5.329 10.5067 5.329H69.4927C71.1981 5.329 72.7919 6.17699 73.98 7.71703C74.1852 7.98268 74.3811 8.27756 74.552 8.57224L75.0031 9.34897L43.5187 44.5051C42.5481 45.5953 41.2984 46.1953 39.9995 46.1953C38.7134 46.1953 37.4648 45.5967 36.4827 44.5065L5.02969 9.35898L5.44109 8.59125ZM4.18047 67.0078C4.16344 66.8633 4.15953 66.7027 4.15953 66.5392V14.5611L28.5923 41.8689L4.40609 68.8864L4.18047 67.0078ZM72.6405 73.5994C71.6948 74.2985 70.6058 74.6692 69.4928 74.6692H10.5069C9.39328 74.6692 8.30469 74.2985 7.35969 73.5994L6.37094 72.8651L31.3609 44.9632L34.0997 48.0152C35.7425 49.8425 37.8375 50.8499 39.9998 50.8499C42.1702 50.8499 44.2686 49.8425 45.9103 48.0152L48.648 44.9618L73.6294 72.8667L72.6405 73.5994ZM75.8394 66.5392C75.8394 66.6999 75.837 66.8589 75.8213 67.0004L75.6047 68.8966L51.4081 41.8835L75.8394 14.5743V66.5392Z" fill="#FFB12B"/>
</svg>
