<svg width="86" height="94" viewBox="0 0 86 94" fill="none" xmlns="http://www.w3.org/2000/svg">
<path d="M10.916 8.67005C11.1629 4.30247 12.2062 2.40321 15.198 0.87804C18.4173 -0.763522 23.4946 0.000411434 29.4691 3.02581C32.0424 4.32952 32.3045 4.35607 36.8143 3.77786C42.8088 3.00902 50.526 3.01173 56.0588 3.7849C60.2428 4.36959 60.5176 4.34038 63.0972 3.03395C71.5776 -1.26053 78.273 -0.979545 80.6974 3.77243C81.9075 6.14437 82.1322 12.2991 81.1939 17.3754C80.6737 20.1897 80.7288 20.541 81.9821 22.3878C90.8001 35.3822 84.4464 56.4455 69.3364 64.306C68.1801 64.9077 67.2058 65.28 66.4116 65.5831C63.9732 66.5142 63.2329 66.797 64.1292 71.0828C64.5608 73.1443 65.0807 78.2696 65.285 82.4731C65.6543 90.0712 65.6488 90.1242 64.3162 91.6743C62.5023 93.7829 59.8879 93.8185 58.1165 91.7587C56.9611 90.4155 56.8483 89.7812 56.8483 84.5986C56.8483 76.9399 56.0088 71.8494 54.0253 67.4873C51.6666 62.2963 53.4152 60.3607 58.8093 59.2006C66.3069 57.5877 72.1627 52.9606 75.4267 46.0702C78.5299 39.5203 78.9976 30.4688 73.3872 24.9639C71.7917 23.0678 71.6806 21.3504 72.8199 16.1718C73.2456 14.2363 73.6026 11.7393 73.6132 10.6224C73.6293 8.85843 73.4687 8.59208 72.3853 8.59208C71.6997 8.59208 69.0803 9.58937 66.5651 10.8081L62.5507 12.7538C62.1856 12.9307 61.7773 12.9987 61.3745 12.9524C51.1667 11.7808 41.4673 11.7627 31.2095 12.957C30.8052 13.0041 30.3951 12.9361 30.0288 12.7583L26.0165 10.8113C23.5011 9.59043 20.8817 8.59208 20.1964 8.59208C18.6116 8.59208 18.5878 9.76206 20.0323 16.7132C20.9147 20.9585 21.5084 21.9045 18.9576 25.299C15.1341 30.3871 14.1791 36.7054 16.2294 43.3439C18.8136 51.7094 25.1416 57.3609 34.0381 59.2464C39.4011 60.3832 40.8029 61.8663 38.7549 68.016C37.1429 72.8555 36.1236 74.103 33.7809 74.103C30.6288 74.103 28.6543 71.3724 29.7409 68.5151C30.2195 67.2558 30.0771 67.1214 27.1243 66.0444C18.1103 62.758 11.2159 55.3918 8.06382 45.6789C5.62747 38.1721 6.69947 28.4013 10.6079 22.4955C11.9387 20.4847 11.9593 20.3142 11.3383 16.4647C10.9869 14.2856 10.7969 10.7783 10.916 8.67005Z" fill="#FCA326"/>
<path d="M7.76832 63.5847C6.4694 61.6364 3.83691 61.1098 1.88851 62.409C-0.0598577 63.7077 -0.58638 66.3403 0.712543 68.2886C1.6715 69.7272 2.81872 70.9089 3.79294 71.8828C3.97255 72.0626 4.14707 72.236 4.31747 72.4052C5.13355 73.2159 5.85409 73.9316 6.57777 74.7813C8.17841 76.66 9.77524 79.1904 10.6828 83.7281C11.087 85.7493 12.5398 86.8381 13.3449 87.3139C14.2179 87.8294 15.1717 88.1335 15.9567 88.3315C17.5624 88.7364 19.5117 88.9467 21.3616 89.0692C23.3924 89.2041 25.5928 89.2477 27.5605 89.2596C27.5619 91.5996 29.4596 93.4966 31.8004 93.4966C34.1421 93.4966 36.0404 91.5984 36.0404 89.2566V85.0166C36.0404 82.6749 34.1421 80.7766 31.8004 80.7766C31.4007 80.7766 30.9683 80.7779 30.5102 80.7796C28.0219 80.7872 24.7786 80.797 21.9221 80.6079C20.5446 80.5167 19.4123 80.3874 18.5819 80.2293C17.3032 75.2095 15.2375 71.8697 13.0331 69.282C12.0587 68.1385 11.0497 67.1378 10.2289 66.3238C10.0753 66.1715 9.92822 66.0257 9.78919 65.8866C8.84219 64.9398 8.22272 64.2665 7.76832 63.5847Z" fill="#FCA326"/>
</svg>
