<svg width="80" height="80" viewBox="0 0 80 80" fill="none" xmlns="http://www.w3.org/2000/svg">
<path d="M0 0L7.28031 72.0034L39.9508 80L72.7117 71.9921L80 0H0ZM64.8135 17.0874L64.3577 21.5643L64.1575 23.5496H64.1243H40H39.965H25.8321L26.7474 32.5924H39.965H40H60.5468H63.2457L63.0012 34.9636L60.6478 58.2133L60.4971 59.7041L40 64.7132V64.7151L39.954 64.7263L19.4385 59.7043L18.0353 45.8387H22.669H28.089L28.802 52.8816L39.9558 55.5375L39.965 55.5354V55.5344L51.1358 52.8766L52.2974 41.4232H40H39.965H17.5879L15.1265 17.0874L14.8866 14.7185H39.9652H40H65.0532L64.8135 17.0874Z" fill="#FFB12B"/>
</svg>
