<svg width="195" height="182" viewBox="0 0 195 182" fill="none" xmlns="http://www.w3.org/2000/svg">
<g clip-path="url(#clip0_2017_101)">
<rect width="195" height="182" fill="url(#paint0_linear_2017_101)" fill-opacity="0.2"/>
<path d="M182.543 0H12.4488C5.57962 0 0 5.19978 0 11.6189V170.381C0 176.785 5.57962 182 12.4488 182H182.543C189.412 182 194.992 176.792 194.992 170.381V11.611C194.983 5.19978 189.412 0 182.543 0ZM88.5406 102.58C88.5406 107.638 88.0265 111.949 86.9982 115.504C85.9699 119.06 84.4107 121.915 82.3373 124.15C80.2555 126.352 77.6511 127.981 74.5494 128.995C71.4393 130.026 67.8235 130.529 63.702 130.529C60.0778 130.529 56.8076 129.994 53.8661 128.932C50.9245 127.87 48.4381 126.352 46.3816 124.37C44.3167 122.38 42.7321 119.98 41.6196 117.164C40.4986 114.34 39.9423 111.186 39.9423 107.732V105.467H51.6241C51.6241 115.614 55.6529 120.696 63.7105 120.696C65.7754 120.696 67.6044 120.476 69.2226 120.012C70.8325 119.54 72.1979 118.682 73.3189 117.4C74.4398 116.126 75.2827 114.364 75.8643 112.082C76.4458 109.801 76.7408 106.827 76.7408 103.154V46.3732H88.5574V102.58H88.5406ZM153.734 119.06C152.529 121.357 150.81 123.363 148.61 125.078C146.393 126.793 143.688 128.122 140.51 129.098C137.341 130.049 133.768 130.529 129.831 130.529C112.385 130.529 103.172 124.102 102.237 111.233H113.716C113.767 118.501 119.102 122.144 129.705 122.144C132.057 122.144 134.164 121.908 135.976 121.412C137.788 120.932 139.305 120.263 140.502 119.414C141.716 118.564 142.626 117.55 143.258 116.393C143.873 115.245 144.202 113.994 144.202 112.625C144.202 111.186 143.957 110.045 143.494 109.18C143.022 108.306 142.095 107.528 140.729 106.851C139.372 106.182 137.476 105.522 135.065 104.884C132.647 104.224 129.486 103.413 125.592 102.462C121.799 101.58 118.512 100.699 115.764 99.8184C113 98.9531 110.741 97.8911 108.98 96.6403C107.21 95.3817 105.895 93.8398 105.043 92.0069C104.192 90.1662 103.771 87.8455 103.771 85.045C103.771 82.5828 104.327 80.2937 105.448 78.1854C106.569 76.0772 108.162 74.2522 110.252 72.7025C112.326 71.1527 114.846 69.9492 117.796 69.0681C120.771 68.1871 124.058 67.7544 127.674 67.7544C144.547 67.7544 153.128 73.3475 153.389 84.5494H142.103C141.699 78.9563 137.181 76.148 128.542 76.148C126.62 76.148 124.85 76.3289 123.207 76.6829C121.563 77.0369 120.156 77.5482 118.942 78.2169C117.728 78.8855 116.801 79.7115 116.118 80.6949C115.453 81.6782 115.115 82.8188 115.115 84.1089C115.115 85.281 115.276 86.2407 115.587 86.9881C115.899 87.7433 116.649 88.4512 117.838 89.0963C119.026 89.7414 120.788 90.3785 123.106 91.0079C125.432 91.6372 128.609 92.4081 132.647 93.3285C136.54 94.2017 139.92 95.1142 142.794 96.0503C145.652 96.9943 148.028 98.1349 149.942 99.4723C151.846 100.802 153.246 102.43 154.173 104.357C155.083 106.277 155.547 108.684 155.547 111.563C155.547 114.261 154.931 116.763 153.734 119.06Z" fill="url(#paint1_linear_2017_101)"/>
</g>
<defs>
<linearGradient id="paint0_linear_2017_101" x1="97.5" y1="0" x2="97.5" y2="182" gradientUnits="userSpaceOnUse">
<stop stop-color="#FFB12B"/>
<stop offset="1" stop-color="#9E8857"/>
</linearGradient>
<linearGradient id="paint1_linear_2017_101" x1="97.4958" y1="0" x2="97.4958" y2="182" gradientUnits="userSpaceOnUse">
<stop stop-color="#FFB12B"/>
<stop offset="1" stop-color="#675031"/>
</linearGradient>
<clipPath id="clip0_2017_101">
<rect width="195" height="182" fill="white"/>
</clipPath>
</defs>
</svg>
