<svg width="80" height="80" viewBox="0 0 80 80" fill="none" xmlns="http://www.w3.org/2000/svg">
<path d="M73.8462 0H6.15385C4.52174 0 2.95649 0.64835 1.80242 1.80242C0.64835 2.95649 0 4.52174 0 6.15385V73.8462C0 75.4783 0.64835 77.0435 1.80242 78.1976C2.95649 79.3517 4.52174 80 6.15385 80H73.8462C75.4783 80 77.0435 79.3517 78.1976 78.1976C79.3517 77.0435 80 75.4783 80 73.8462V6.15385C80 4.52174 79.3517 2.95649 78.1976 1.80242C77.0435 0.64835 75.4783 0 73.8462 0ZM73.8462 73.8462H6.15385V6.15385H73.8462V73.8462ZM27.6923 33.8462V58.4615C27.6923 59.2776 27.3681 60.0602 26.7911 60.6373C26.2141 61.2143 25.4314 61.5385 24.6154 61.5385C23.7993 61.5385 23.0167 61.2143 22.4397 60.6373C21.8626 60.0602 21.5385 59.2776 21.5385 58.4615V33.8462C21.5385 33.0301 21.8626 32.2475 22.4397 31.6704C23.0167 31.0934 23.7993 30.7692 24.6154 30.7692C25.4314 30.7692 26.2141 31.0934 26.7911 31.6704C27.3681 32.2475 27.6923 33.0301 27.6923 33.8462ZM61.5385 44.6154V58.4615C61.5385 59.2776 61.2143 60.0602 60.6373 60.6373C60.0602 61.2143 59.2776 61.5385 58.4615 61.5385C57.6455 61.5385 56.8629 61.2143 56.2858 60.6373C55.7088 60.0602 55.3846 59.2776 55.3846 58.4615V44.6154C55.3846 42.5753 54.5742 40.6187 53.1316 39.1761C51.689 37.7335 49.7324 36.9231 47.6923 36.9231C45.6522 36.9231 43.6956 37.7335 42.253 39.1761C40.8104 40.6187 40 42.5753 40 44.6154V58.4615C40 59.2776 39.6758 60.0602 39.0988 60.6373C38.5218 61.2143 37.7391 61.5385 36.9231 61.5385C36.107 61.5385 35.3244 61.2143 34.7474 60.6373C34.1703 60.0602 33.8462 59.2776 33.8462 58.4615V33.8462C33.85 33.0925 34.1303 32.3664 34.6339 31.8057C35.1375 31.245 35.8294 30.8886 36.5784 30.8042C37.3273 30.7198 38.0812 30.9131 38.697 31.3477C39.3128 31.7822 39.7477 32.4276 39.9192 33.1615C42.0007 31.7495 44.4275 30.9311 46.939 30.7943C49.4505 30.6575 51.9519 31.2073 54.1745 32.3848C56.397 33.5624 58.2569 35.3231 59.5543 37.4779C60.8517 39.6327 61.5376 42.1002 61.5385 44.6154ZM29.2308 23.0769C29.2308 23.9898 28.9601 24.8821 28.4529 25.6411C27.9458 26.4001 27.225 26.9917 26.3816 27.341C25.5383 27.6903 24.6103 27.7817 23.715 27.6036C22.8197 27.4255 21.9973 26.986 21.3518 26.3405C20.7063 25.695 20.2668 24.8726 20.0887 23.9773C19.9106 23.082 20.002 22.154 20.3513 21.3107C20.7007 20.4673 21.2922 19.7465 22.0512 19.2394C22.8102 18.7322 23.7025 18.4615 24.6154 18.4615C25.8395 18.4615 27.0134 18.9478 27.879 19.8134C28.7445 20.6789 29.2308 21.8528 29.2308 23.0769Z" fill="#FFB12B"/>
</svg>
