<svg width="11" height="21" viewBox="0 0 11 21" fill="none" xmlns="http://www.w3.org/2000/svg">
<path d="M10.5 5.25053C10.5001 4.24418 10.211 3.25901 9.66702 2.41233C9.12308 1.56565 8.34726 0.893145 7.43194 0.474898C6.51663 0.056652 5.50038 -0.0897107 4.50424 0.0532403C3.5081 0.196191 2.57403 0.622432 1.81327 1.2812C1.05251 1.93997 0.497112 2.80352 0.213224 3.76899C-0.0706638 4.73447 -0.0710823 5.76119 0.212018 6.7269C0.495118 7.69261 1.04981 8.5566 1.81003 9.216C2.57025 9.87539 3.50397 10.3024 4.5 10.4462V20.2505C4.5 20.4494 4.57902 20.6402 4.71967 20.7809C4.86032 20.9215 5.05109 21.0005 5.25 21.0005C5.44891 21.0005 5.63968 20.9215 5.78033 20.7809C5.92098 20.6402 6 20.4494 6 20.2505V10.4462C7.24867 10.2642 8.39027 9.6392 9.2164 8.68536C10.0425 7.73151 10.4981 6.5124 10.5 5.25053ZM5.25 9.00053C4.50832 9.00053 3.7833 8.7806 3.16661 8.36854C2.54993 7.95649 2.06928 7.37082 1.78545 6.68559C1.50162 6.00037 1.42736 5.24637 1.57205 4.51894C1.71675 3.79151 2.0739 3.12333 2.59835 2.59888C3.1228 2.07443 3.79098 1.71728 4.51841 1.57259C5.24584 1.42789 5.99984 1.50215 6.68506 1.78598C7.37029 2.06981 7.95596 2.55046 8.36801 3.16714C8.78007 3.78383 9 4.50885 9 5.25053C9 5.74299 8.903 6.23062 8.71455 6.68559C8.52609 7.14056 8.24987 7.55396 7.90165 7.90218C7.55343 8.2504 7.14003 8.52662 6.68506 8.71508C6.23009 8.90353 5.74246 9.00053 5.25 9.00053Z" fill="#FFB12B"/>
</svg>
