<svg width="200" height="20" viewBox="0 0 200 20" fill="none" xmlns="http://www.w3.org/2000/svg">
<path d="M16.1367 17.1211C16.1367 17.2695 16.0898 17.3906 15.9961 17.4844C15.6602 17.8047 15.2148 18.0938 14.6602 18.3516C14.1133 18.6094 13.5156 18.8281 12.8672 19.0078C12.2266 19.1875 11.5977 19.3242 10.9805 19.418C10.3711 19.5195 9.83594 19.5703 9.375 19.5703C8.1875 19.5703 7.03516 19.4375 5.91797 19.1719C4.80078 18.8984 3.79688 18.4688 2.90625 17.8828C2.01562 17.2969 1.30859 16.5312 0.785156 15.5859C0.261719 14.6328 0 13.4805 0 12.1289C0 9.01953 0.796875 6.74609 2.39062 5.30859C3.99219 3.87109 6.30859 3.15234 9.33984 3.15234C9.87109 3.15234 10.4766 3.17969 11.1562 3.23438C11.8359 3.28906 12.5078 3.37891 13.1719 3.50391C13.8359 3.62891 14.4102 3.79688 14.8945 4.00781C14.957 4.03125 15.0234 4.07031 15.0938 4.125C15.1641 4.17969 15.1992 4.24609 15.1992 4.32422C15.1992 4.35547 15.1602 4.51172 15.082 4.79297C15.0117 5.06641 14.918 5.40625 14.8008 5.8125C14.6914 6.21094 14.5781 6.61719 14.4609 7.03125C14.3438 7.44531 14.2383 7.80859 14.1445 8.12109C14.0586 8.42578 14.0039 8.61719 13.9805 8.69531C13.9492 8.79688 13.9102 8.88672 13.8633 8.96484C13.8164 9.03516 13.7266 9.07031 13.5938 9.07031C13.5469 9.07031 13.4688 9.05469 13.3594 9.02344C12.7891 8.86719 12.207 8.74219 11.6133 8.64844C11.0195 8.55469 10.4258 8.50781 9.83203 8.50781C9.27734 8.50781 8.73438 8.53906 8.20312 8.60156C7.67969 8.65625 7.20703 8.78516 6.78516 8.98828C6.36328 9.18359 6.02734 9.48438 5.77734 9.89062C5.52734 10.2891 5.40234 10.8359 5.40234 11.5312C5.40234 12.3047 5.57031 12.8828 5.90625 13.2656C6.24219 13.6484 6.6875 13.9023 7.24219 14.0273C7.79688 14.1523 8.39844 14.2148 9.04688 14.2148C9.14844 14.2148 9.33594 14.2109 9.60938 14.2031C9.88281 14.1875 10.1719 14.1602 10.4766 14.1211C10.7891 14.082 11.0547 14.0234 11.2734 13.9453C11.5 13.8672 11.6133 13.7617 11.6133 13.6289C11.6133 13.5742 11.6055 13.5234 11.5898 13.4766C11.5742 13.4219 11.5312 13.3945 11.4609 13.3945H8.87109C8.55859 13.3945 8.40234 13.2344 8.40234 12.9141V10.3477C8.40234 10.0273 8.55859 9.86719 8.87109 9.86719H15.5156C15.8125 9.86719 15.9688 10.0273 15.9844 10.3477C15.9922 10.5273 15.9922 10.7109 15.9844 10.8984C15.9844 11.0859 15.9844 11.2695 15.9844 11.4492C15.9844 12.707 16.0078 13.9648 16.0547 15.2227C16.0703 15.5352 16.0859 15.8516 16.1016 16.1719C16.125 16.4844 16.1367 16.8008 16.1367 17.1211ZM99.8789 3.79688C99.8789 3.46875 100.035 3.30469 100.348 3.30469H106.723C107.355 3.30469 108.066 3.36328 108.855 3.48047C109.645 3.58984 110.402 3.79297 111.129 4.08984C111.855 4.37891 112.453 4.78516 112.922 5.30859C113.398 5.83203 113.637 6.50391 113.637 7.32422C113.637 8.34766 113.328 9.25 112.711 10.0312C112.641 10.1172 112.562 10.2031 112.477 10.2891C112.391 10.3672 112.312 10.4492 112.242 10.5352C112.227 10.5508 112.199 10.5977 112.16 10.6758C112.176 10.7461 112.301 10.8516 112.535 10.9922C112.777 11.1328 113.051 11.3398 113.355 11.6133C113.668 11.8789 113.941 12.2383 114.176 12.6914C114.41 13.1367 114.527 13.707 114.527 14.4023C114.527 15.4258 114.312 16.2656 113.883 16.9219C113.461 17.5781 112.898 18.0859 112.195 18.4453C111.492 18.8047 110.719 19.0547 109.875 19.1953C109.031 19.3359 108.188 19.4062 107.344 19.4062H100.301C99.9883 19.4062 99.832 19.2422 99.832 18.9141C99.832 18.4766 99.8516 18.043 99.8906 17.6133C99.9297 17.1758 99.957 16.7422 99.9727 16.3125C100.012 15.4062 100.035 14.5039 100.043 13.6055C100.059 12.6992 100.066 11.7969 100.066 10.8984C100.066 10.125 100.059 9.35156 100.043 8.57812C100.035 7.80469 100.016 7.03125 99.9844 6.25781C99.9766 5.84375 99.957 5.43359 99.9258 5.02734C99.8945 4.61328 99.8789 4.20313 99.8789 3.79688ZM106.91 9.23438C107.23 9.23438 107.523 9.15625 107.789 9C108.062 8.84375 108.199 8.58594 108.199 8.22656C108.199 7.875 108.059 7.60938 107.777 7.42969C107.496 7.25 107.195 7.16016 106.875 7.16016H105.246C105.246 7.50391 105.25 7.85156 105.258 8.20312C105.266 8.54688 105.27 8.89062 105.27 9.23438H106.91ZM106.91 14.8008C107.168 14.8008 107.469 14.7852 107.812 14.7539C108.156 14.7227 108.453 14.6328 108.703 14.4844C108.961 14.3281 109.09 14.0703 109.09 13.7109C109.09 13.4219 108.98 13.2148 108.762 13.0898C108.543 12.957 108.289 12.875 108 12.8438C107.711 12.8047 107.461 12.7852 107.25 12.7852H105.27C105.27 13.1211 105.266 13.457 105.258 13.793C105.25 14.1289 105.246 14.4648 105.246 14.8008H106.91Z" fill="#9E8857"/>
<path d="M26.3672 19.4062C26.1719 19.4062 26.0234 19.3086 25.9219 19.1133C25.8906 19.0508 25.832 18.9141 25.7461 18.7031C25.6602 18.4844 25.5703 18.2773 25.4766 18.082C25.3828 17.8867 25.3047 17.7891 25.2422 17.7891C25.2188 17.7891 25.1836 17.8242 25.1367 17.8945C24.707 18.4883 24.2578 18.9531 23.7891 19.2891C23.3203 19.6172 22.6992 19.7812 21.9258 19.7812C21.2773 19.7812 20.668 19.6445 20.0977 19.3711C19.5273 19.0977 19.0664 18.7109 18.7148 18.2109C18.3633 17.7031 18.1875 17.1055 18.1875 16.418C18.1875 15.6133 18.2031 14.8086 18.2344 14.0039C18.2656 13.1992 18.2812 12.3945 18.2812 11.5898C18.2812 10.9883 18.2734 10.3828 18.2578 9.77344C18.25 9.16406 18.2461 8.55859 18.2461 7.95703C18.2461 7.64453 18.4023 7.48828 18.7148 7.48828H23.0273C23.332 7.48828 23.4883 7.64453 23.4961 7.95703C23.5117 8.49609 23.5195 9.03906 23.5195 9.58594C23.5195 10.1328 23.5195 10.6758 23.5195 11.2148C23.5195 11.7539 23.5156 12.2969 23.5078 12.8438C23.5 13.3828 23.4961 13.9219 23.4961 14.4609C23.4961 14.6797 23.5195 14.918 23.5664 15.1758C23.6211 15.4336 23.7969 15.5625 24.0938 15.5625C24.4922 15.5625 24.793 15.3828 24.9961 15.0234C25.1992 14.6641 25.3359 14.2266 25.4062 13.7109C25.4844 13.1953 25.5234 12.6914 25.5234 12.1992C25.5234 11.6992 25.5234 11.3164 25.5234 11.0508C25.5234 10.543 25.5156 10.0273 25.5 9.50391C25.4922 8.98047 25.5078 8.46484 25.5469 7.95703C25.5703 7.64453 25.7266 7.48828 26.0156 7.48828H30.3164C30.6211 7.48828 30.7734 7.64453 30.7734 7.95703C30.7734 8.50391 30.7656 9.05078 30.75 9.59766C30.7422 10.1367 30.7383 10.6797 30.7383 11.2266C30.7383 12.0938 30.7461 12.9609 30.7617 13.8281C30.7773 14.6953 30.8008 15.5625 30.832 16.4297C30.8477 16.8438 30.8711 17.2578 30.9023 17.6719C30.9336 18.0859 30.9492 18.5 30.9492 18.9141C30.9492 19.2422 30.793 19.4062 30.4805 19.4062H26.3672ZM35.8242 19.8047C35.4648 19.8047 35.0625 19.7617 34.6172 19.6758C34.1797 19.5977 33.7578 19.4688 33.3516 19.2891C32.9531 19.1094 32.625 18.8828 32.3672 18.6094C32.3438 18.5859 32.3164 18.5508 32.2852 18.5039C32.2539 18.4492 32.2383 18.4062 32.2383 18.375C32.2383 18.3125 32.2734 18.1641 32.3438 17.9297C32.4219 17.6875 32.5078 17.4219 32.6016 17.1328C32.7031 16.8359 32.8008 16.5625 32.8945 16.3125C32.9883 16.0625 33.0508 15.8945 33.082 15.8086C33.1133 15.7383 33.1562 15.6641 33.2109 15.5859C33.2656 15.5 33.3359 15.457 33.4219 15.457C33.5781 15.457 33.7617 15.5156 33.9727 15.6328C34.1836 15.7422 34.418 15.8555 34.6758 15.9727C34.9336 16.082 35.2109 16.1367 35.5078 16.1367C35.6875 16.1367 35.8047 16.1016 35.8594 16.0312C35.9219 15.9531 35.9531 15.8281 35.9531 15.6562C35.9531 15.2578 35.8516 14.9961 35.6484 14.8711C35.4453 14.7461 35.1914 14.6016 34.8867 14.4375C34.1055 14.0234 33.5078 13.5234 33.0938 12.9375C32.6875 12.3438 32.4844 11.5977 32.4844 10.6992C32.4844 9.82422 32.6758 9.13281 33.0586 8.625C33.4492 8.10938 33.9688 7.74219 34.6172 7.52344C35.2656 7.29688 35.9805 7.18359 36.7617 7.18359C36.9023 7.18359 37.1328 7.19531 37.4531 7.21875C37.7812 7.24219 38.125 7.28516 38.4844 7.34766C38.8438 7.41016 39.1523 7.5 39.4102 7.61719C39.668 7.73438 39.7969 7.88672 39.7969 8.07422C39.7969 8.16797 39.7617 8.35547 39.6914 8.63672C39.6211 8.91016 39.5469 9.1875 39.4688 9.46875C39.3906 9.75 39.332 9.94922 39.293 10.0664C39.2617 10.168 39.2188 10.2617 39.1641 10.3477C39.1172 10.4258 39.0273 10.4648 38.8945 10.4648C38.7148 10.4648 38.5352 10.4297 38.3555 10.3594C38.1836 10.2891 38.0078 10.2539 37.8281 10.2539C37.6484 10.2539 37.5 10.293 37.3828 10.3711C37.2656 10.4492 37.207 10.5898 37.207 10.793C37.207 11.0508 37.3086 11.2812 37.5117 11.4844C37.7148 11.6875 37.9609 11.8789 38.25 12.0586C38.5391 12.2305 38.8242 12.3945 39.1055 12.5508C39.3867 12.707 39.6055 12.8633 39.7617 13.0195C40.0664 13.332 40.2656 13.6953 40.3594 14.1094C40.4609 14.5234 40.5117 14.9375 40.5117 15.3516C40.5117 16.7656 40.0742 17.8633 39.1992 18.6445C38.3242 19.418 37.1992 19.8047 35.8242 19.8047ZM42.832 2.73047C42.832 2.40234 42.9922 2.23828 43.3125 2.23828H47.7188C48.0391 2.23828 48.1992 2.39844 48.1992 2.71875L48.1289 7.14844C48.1289 7.25 48.1758 7.30078 48.2695 7.30078H49.9219C50.2344 7.30078 50.3906 7.45703 50.3906 7.76953C50.3906 8.29297 50.3906 8.82031 50.3906 9.35156C50.3906 9.88281 50.3828 10.4141 50.3672 10.9453C50.3516 11.2656 50.1953 11.4258 49.8984 11.4258H48.3047C48.2734 11.4258 48.2344 11.4297 48.1875 11.4375C48.1406 11.4453 48.1172 11.4727 48.1172 11.5195C48.1172 12.7539 48.1289 13.9883 48.1523 15.2227C48.1836 16.457 48.1992 17.6914 48.1992 18.9258C48.1992 19.2461 48.0391 19.4062 47.7188 19.4062H43.3125C43 19.4062 42.8438 19.2422 42.8438 18.9141C42.8438 17.6953 42.8594 16.4805 42.8906 15.2695C42.9219 14.0508 42.9375 12.832 42.9375 11.6133C42.9375 11.5273 42.8984 11.4727 42.8203 11.4492C42.7422 11.4258 42.668 11.4141 42.5977 11.4141C42.3789 11.4141 42.1602 11.418 41.9414 11.4258C41.7227 11.4258 41.6055 11.2656 41.5898 10.9453C41.582 10.7578 41.5781 10.5703 41.5781 10.3828C41.5859 10.1875 41.5898 10 41.5898 9.82031C41.582 9.47656 41.5742 9.13281 41.5664 8.78906C41.5664 8.44531 41.5664 8.10547 41.5664 7.76953C41.5664 7.44922 41.7461 7.28906 42.1055 7.28906C42.1992 7.28906 42.3555 7.29688 42.5742 7.3125C42.8008 7.32031 42.9141 7.25 42.9141 7.10156C42.9141 6.375 42.8984 5.64844 42.8672 4.92188C42.8438 4.1875 42.832 3.45703 42.832 2.73047ZM56.2852 19.7812C55.4336 19.7812 54.7109 19.6055 54.1172 19.2539C53.5312 18.8945 53.0547 18.4219 52.6875 17.8359C52.3281 17.2422 52.0664 16.5859 51.9023 15.8672C51.7461 15.1484 51.668 14.4219 51.668 13.6875C51.668 12.8359 51.7539 12.0195 51.9258 11.2383C52.1055 10.457 52.3945 9.76172 52.793 9.15234C53.1914 8.53516 53.7227 8.05078 54.3867 7.69922C55.0508 7.33984 55.8672 7.16016 56.8359 7.16016C57.2969 7.16016 57.7305 7.23437 58.1367 7.38281C58.543 7.52344 58.9492 7.69531 59.3555 7.89844L59.4141 7.92188H59.4727C59.6055 7.84375 59.6992 7.75391 59.7539 7.65234C59.8086 7.54297 59.9297 7.48828 60.1172 7.48828H64.3477C64.6602 7.48828 64.8164 7.64453 64.8164 7.95703C64.8164 8.55078 64.8086 9.14453 64.793 9.73828C64.7852 10.332 64.7812 10.9258 64.7812 11.5195C64.7812 12.3477 64.7891 13.1797 64.8047 14.0156C64.8203 14.8516 64.8438 15.6875 64.875 16.5234C64.8906 16.9219 64.9141 17.3203 64.9453 17.7188C64.9766 18.1172 64.9922 18.5156 64.9922 18.9141C64.9922 19.2422 64.8359 19.4062 64.5234 19.4062H60.2109C59.9766 19.4062 59.8594 19.2695 59.8594 18.9961C59.8594 18.9414 59.8594 18.8516 59.8594 18.7266C59.8672 18.5938 59.8281 18.5273 59.7422 18.5273L59.6953 18.5391C59.1719 18.9141 58.6367 19.2148 58.0898 19.4414C57.5508 19.668 56.9492 19.7812 56.2852 19.7812ZM58.2305 15.3633C58.5273 15.3633 58.8164 15.3047 59.0977 15.1875C59.3867 15.0625 59.6172 14.8789 59.7891 14.6367V11.5781C59.5781 11.3984 59.3398 11.2539 59.0742 11.1445C58.8164 11.0352 58.5469 10.9805 58.2656 10.9805C57.9062 10.9805 57.6133 11.1172 57.3867 11.3906C57.168 11.6562 57.0078 11.9727 56.9062 12.3398C56.8047 12.707 56.7539 13.0391 56.7539 13.3359C56.7539 13.625 56.8047 13.9258 56.9062 14.2383C57.0078 14.5508 57.168 14.8164 57.3867 15.0352C57.6055 15.2539 57.8867 15.3633 58.2305 15.3633ZM79.0195 7.82812C79.0195 7.89062 79.0039 7.95703 78.9727 8.02734C78.9414 8.08984 78.9102 8.15234 78.8789 8.21484C78.3164 9.28516 77.7539 10.3594 77.1914 11.4375C76.6289 12.5156 76.0703 13.5938 75.5156 14.6719C75.2812 15.125 75.0508 15.582 74.8242 16.043C74.5977 16.5039 74.3633 16.9609 74.1211 17.4141C74.0742 17.5078 73.9805 17.6953 73.8398 17.9766C73.6992 18.2578 73.5508 18.5234 73.3945 18.7734C73.2461 19.0234 73.1211 19.1484 73.0195 19.1484C72.9023 19.1484 72.8125 19.1133 72.75 19.043C72.6875 18.9648 72.625 18.8789 72.5625 18.7852C72.4297 18.5586 72.3008 18.332 72.1758 18.1055C72.0508 17.8789 71.9219 17.6523 71.7891 17.4258C71.5 16.918 71.2109 16.4062 70.9219 15.8906C70.6406 15.375 70.3555 14.8633 70.0664 14.3555C69.4961 13.332 68.918 12.3125 68.332 11.2969C67.7461 10.2734 67.1641 9.25391 66.5859 8.23828C66.5469 8.16797 66.5117 8.10547 66.4805 8.05078C66.457 7.98828 66.4453 7.91406 66.4453 7.82812C66.4453 7.69531 66.5 7.61328 66.6094 7.58203C66.7188 7.54297 66.8242 7.52344 66.9258 7.52344H72.1406C72.3594 7.52344 72.5078 7.62891 72.5859 7.83984C72.6719 8.04297 72.7344 8.24609 72.7734 8.44922C72.8203 8.65234 72.8867 8.75391 72.9727 8.75391C73.0664 8.75391 73.1211 8.65234 73.1367 8.44922C73.1523 8.24609 73.1914 8.04297 73.2539 7.83984C73.3242 7.62891 73.4766 7.52344 73.7109 7.52344H78.5391C78.6328 7.52344 78.7344 7.54297 78.8438 7.58203C78.9609 7.62109 79.0195 7.70312 79.0195 7.82812ZM80.1797 13.6523C80.1797 12.3867 80.4141 11.2656 80.8828 10.2891C81.3516 9.30469 82.0352 8.53516 82.9336 7.98047C83.8398 7.41797 84.9492 7.13672 86.2617 7.13672C87.5664 7.13672 88.6367 7.41797 89.4727 7.98047C90.3164 8.54297 90.9375 9.30859 91.3359 10.2773C91.7422 11.2461 91.9453 12.3398 91.9453 13.5586C91.9453 15.418 91.4648 16.9219 90.5039 18.0703C89.543 19.2109 88.0898 19.7812 86.1445 19.7812C84.2383 19.7812 82.7656 19.2305 81.7266 18.1289C80.6953 17.0273 80.1797 15.5352 80.1797 13.6523ZM85.5234 13.2539C85.5234 13.3477 85.5273 13.5117 85.5352 13.7461C85.543 13.9727 85.5664 14.2188 85.6055 14.4844C85.6445 14.7422 85.707 14.9648 85.793 15.1523C85.8867 15.3398 86.0117 15.4336 86.168 15.4336C86.3711 15.4336 86.5156 15.2852 86.6016 14.9883C86.6875 14.6914 86.7383 14.3672 86.7539 14.0156C86.7773 13.6562 86.7891 13.3867 86.7891 13.207C86.7891 13.1133 86.7812 12.957 86.7656 12.7383C86.7578 12.5117 86.7305 12.2734 86.6836 12.0234C86.6445 11.7734 86.582 11.5625 86.4961 11.3906C86.4102 11.2109 86.293 11.1211 86.1445 11.1211C85.9883 11.1211 85.8672 11.2109 85.7812 11.3906C85.7031 11.5703 85.6445 11.7852 85.6055 12.0352C85.5664 12.2852 85.543 12.5273 85.5352 12.7617C85.5273 12.9883 85.5234 13.1523 85.5234 13.2539ZM122.613 19.7812C120.566 19.7812 118.965 19.293 117.809 18.3164C116.652 17.3398 116.074 15.7891 116.074 13.6641C116.074 11.7031 116.594 10.1289 117.633 8.94141C118.672 7.74609 120.203 7.14844 122.227 7.14844C123.93 7.14844 125.219 7.60547 126.094 8.51953C126.977 9.43359 127.508 10.7109 127.688 12.3516V12.4219C127.688 12.5469 127.664 12.6406 127.617 12.7031C127.57 12.7578 127.492 12.8164 127.383 12.8789C127.164 12.9961 126.922 13.0898 126.656 13.1602C126.391 13.2305 126.137 13.3086 125.895 13.3945L123.129 14.3555C122.887 14.4414 122.641 14.5234 122.391 14.6016C122.141 14.6719 121.891 14.7539 121.641 14.8477L121.559 14.9766C121.566 14.9922 121.57 15.0078 121.57 15.0234C121.57 15.0391 121.574 15.0547 121.582 15.0703C121.738 15.4375 121.988 15.7305 122.332 15.9492C122.676 16.168 123.043 16.2773 123.434 16.2773C123.824 16.2773 124.191 16.2109 124.535 16.0781C124.879 15.9453 125.176 15.8164 125.426 15.6914C125.684 15.5586 125.867 15.4922 125.977 15.4922C126.078 15.4922 126.156 15.5312 126.211 15.6094C126.273 15.6797 126.324 15.7539 126.363 15.832C126.402 15.9102 126.473 16.0664 126.574 16.3008C126.676 16.5273 126.785 16.7812 126.902 17.0625C127.02 17.3359 127.121 17.582 127.207 17.8008C127.293 18.0195 127.336 18.1562 127.336 18.2109C127.336 18.3359 127.273 18.4453 127.148 18.5391C126.562 18.9922 125.84 19.3125 124.98 19.5C124.129 19.6875 123.34 19.7812 122.613 19.7812ZM121.289 12.5391C121.609 12.4062 121.93 12.2695 122.25 12.1289C122.578 11.9883 122.902 11.8516 123.223 11.7188C123.23 11.3984 123.141 11.1797 122.953 11.0625C122.766 10.9453 122.531 10.8867 122.25 10.8867C121.961 10.8867 121.75 10.9805 121.617 11.168C121.484 11.3477 121.398 11.5664 121.359 11.8242C121.328 12.082 121.305 12.3203 121.289 12.5391ZM133.055 7.52344C133.258 7.52344 133.383 7.59766 133.43 7.74609C133.484 7.89453 133.516 8.04297 133.523 8.19141C133.539 8.33984 133.59 8.41406 133.676 8.41406C133.707 8.41406 133.73 8.40234 133.746 8.37891C133.77 8.34766 133.789 8.32422 133.805 8.30859C134.172 7.91016 134.621 7.63672 135.152 7.48828C135.684 7.33203 136.211 7.25391 136.734 7.25391C136.82 7.25391 136.973 7.25781 137.191 7.26562C137.41 7.27344 137.645 7.29297 137.895 7.32422C138.152 7.35547 138.371 7.40234 138.551 7.46484C138.73 7.52734 138.82 7.61328 138.82 7.72266C138.82 7.78516 138.762 8.00391 138.645 8.37891C138.535 8.74609 138.402 9.17188 138.246 9.65625C138.09 10.1328 137.945 10.5742 137.812 10.9805C137.68 11.3789 137.594 11.6367 137.555 11.7539C137.523 11.8555 137.477 11.9414 137.414 12.0117C137.352 12.082 137.258 12.1172 137.133 12.1172C136.977 12.1172 136.824 12.0938 136.676 12.0469C136.527 12 136.375 11.9766 136.219 11.9766C135.766 11.9766 135.387 12.1055 135.082 12.3633C134.785 12.6133 134.547 12.9336 134.367 13.3242C134.188 13.7148 134.059 14.125 133.98 14.5547C133.91 14.9844 133.875 15.3789 133.875 15.7383C133.875 16.2617 133.879 16.793 133.887 17.332C133.902 17.8633 133.902 18.3945 133.887 18.9258C133.871 19.2461 133.711 19.4062 133.406 19.4062H128.918C128.605 19.4062 128.449 19.2422 128.449 18.9141C128.449 17.6562 128.473 16.3984 128.52 15.1406C128.574 13.8828 128.602 12.6289 128.602 11.3789C128.602 10.8164 128.594 10.2539 128.578 9.69141C128.562 9.12109 128.562 8.55469 128.578 7.99219C128.586 7.67969 128.742 7.52344 129.047 7.52344H133.055ZM144.141 7.48828C144.352 7.48828 144.512 7.59766 144.621 7.81641C144.738 8.03516 144.836 8.25391 144.914 8.47266C145 8.69141 145.094 8.80078 145.195 8.80078C145.211 8.80078 145.246 8.77344 145.301 8.71875C145.738 8.23438 146.172 7.85156 146.602 7.57031C147.039 7.28906 147.602 7.14844 148.289 7.14844C149.336 7.14844 150.211 7.45312 150.914 8.0625C151.617 8.67188 151.973 9.51562 151.98 10.5938C151.988 11.5312 151.996 12.4688 152.004 13.4062C152.02 14.3438 152.043 15.2812 152.074 16.2188C152.09 16.6641 152.113 17.1133 152.145 17.5664C152.176 18.0195 152.191 18.4688 152.191 18.9141C152.191 19.2422 152.035 19.4062 151.723 19.4062H147.27C146.957 19.4062 146.797 19.2461 146.789 18.9258C146.758 18.2305 146.746 17.5312 146.754 16.8281C146.762 16.1172 146.766 15.4102 146.766 14.707C146.766 14.3164 146.77 13.9297 146.777 13.5469C146.793 13.1641 146.789 12.7812 146.766 12.3984C146.758 12.1953 146.727 11.957 146.672 11.6836C146.617 11.4102 146.449 11.2734 146.168 11.2734C145.816 11.2734 145.551 11.4453 145.371 11.7891C145.191 12.1328 145.066 12.5508 144.996 13.043C144.934 13.5273 144.898 14.0039 144.891 14.4727C144.891 14.9336 144.887 15.2812 144.879 15.5156C144.871 15.6484 144.867 15.7812 144.867 15.9141C144.875 16.0469 144.879 16.1797 144.879 16.3125C144.879 16.7422 144.883 17.1797 144.891 17.625C144.906 18.0625 144.895 18.4961 144.855 18.9258C144.832 19.2461 144.672 19.4062 144.375 19.4062H139.875C139.562 19.4062 139.406 19.2422 139.406 18.9141C139.406 18.5 139.422 18.0859 139.453 17.6719C139.492 17.2578 139.516 16.8438 139.523 16.4297C139.555 15.5469 139.574 14.668 139.582 13.793C139.598 12.9102 139.605 12.0312 139.605 11.1562C139.605 10.6641 139.598 10.1758 139.582 9.69141C139.574 9.19922 139.57 8.70703 139.57 8.21484C139.57 8.02734 139.59 7.85938 139.629 7.71094C139.668 7.5625 139.809 7.48828 140.051 7.48828H144.141ZM158.449 19.7812C157.598 19.7812 156.875 19.6055 156.281 19.2539C155.695 18.8945 155.219 18.4219 154.852 17.8359C154.492 17.2422 154.23 16.5859 154.066 15.8672C153.91 15.1484 153.832 14.4219 153.832 13.6875C153.832 12.8359 153.918 12.0195 154.09 11.2383C154.27 10.457 154.559 9.76172 154.957 9.15234C155.355 8.53516 155.887 8.05078 156.551 7.69922C157.215 7.33984 158.031 7.16016 159 7.16016C159.461 7.16016 159.895 7.23437 160.301 7.38281C160.707 7.52344 161.113 7.69531 161.52 7.89844L161.578 7.92188H161.637C161.77 7.84375 161.863 7.75391 161.918 7.65234C161.973 7.54297 162.094 7.48828 162.281 7.48828H166.512C166.824 7.48828 166.98 7.64453 166.98 7.95703C166.98 8.55078 166.973 9.14453 166.957 9.73828C166.949 10.332 166.945 10.9258 166.945 11.5195C166.945 12.3477 166.953 13.1797 166.969 14.0156C166.984 14.8516 167.008 15.6875 167.039 16.5234C167.055 16.9219 167.078 17.3203 167.109 17.7188C167.141 18.1172 167.156 18.5156 167.156 18.9141C167.156 19.2422 167 19.4062 166.688 19.4062H162.375C162.141 19.4062 162.023 19.2695 162.023 18.9961C162.023 18.9414 162.023 18.8516 162.023 18.7266C162.031 18.5938 161.992 18.5273 161.906 18.5273L161.859 18.5391C161.336 18.9141 160.801 19.2148 160.254 19.4414C159.715 19.668 159.113 19.7812 158.449 19.7812ZM160.395 15.3633C160.691 15.3633 160.98 15.3047 161.262 15.1875C161.551 15.0625 161.781 14.8789 161.953 14.6367V11.5781C161.742 11.3984 161.504 11.2539 161.238 11.1445C160.98 11.0352 160.711 10.9805 160.43 10.9805C160.07 10.9805 159.777 11.1172 159.551 11.3906C159.332 11.6562 159.172 11.9727 159.07 12.3398C158.969 12.707 158.918 13.0391 158.918 13.3359C158.918 13.625 158.969 13.9258 159.07 14.2383C159.172 14.5508 159.332 14.8164 159.551 15.0352C159.77 15.2539 160.051 15.3633 160.395 15.3633ZM172.781 7.52344C172.984 7.52344 173.109 7.59766 173.156 7.74609C173.211 7.89453 173.242 8.04297 173.25 8.19141C173.266 8.33984 173.316 8.41406 173.402 8.41406C173.434 8.41406 173.457 8.40234 173.473 8.37891C173.496 8.34766 173.516 8.32422 173.531 8.30859C173.898 7.91016 174.348 7.63672 174.879 7.48828C175.41 7.33203 175.938 7.25391 176.461 7.25391C176.547 7.25391 176.699 7.25781 176.918 7.26562C177.137 7.27344 177.371 7.29297 177.621 7.32422C177.879 7.35547 178.098 7.40234 178.277 7.46484C178.457 7.52734 178.547 7.61328 178.547 7.72266C178.547 7.78516 178.488 8.00391 178.371 8.37891C178.262 8.74609 178.129 9.17188 177.973 9.65625C177.816 10.1328 177.672 10.5742 177.539 10.9805C177.406 11.3789 177.32 11.6367 177.281 11.7539C177.25 11.8555 177.203 11.9414 177.141 12.0117C177.078 12.082 176.984 12.1172 176.859 12.1172C176.703 12.1172 176.551 12.0938 176.402 12.0469C176.254 12 176.102 11.9766 175.945 11.9766C175.492 11.9766 175.113 12.1055 174.809 12.3633C174.512 12.6133 174.273 12.9336 174.094 13.3242C173.914 13.7148 173.785 14.125 173.707 14.5547C173.637 14.9844 173.602 15.3789 173.602 15.7383C173.602 16.2617 173.605 16.793 173.613 17.332C173.629 17.8633 173.629 18.3945 173.613 18.9258C173.598 19.2461 173.438 19.4062 173.133 19.4062H168.645C168.332 19.4062 168.176 19.2422 168.176 18.9141C168.176 17.6562 168.199 16.3984 168.246 15.1406C168.301 13.8828 168.328 12.6289 168.328 11.3789C168.328 10.8164 168.32 10.2539 168.305 9.69141C168.289 9.12109 168.289 8.55469 168.305 7.99219C168.312 7.67969 168.469 7.52344 168.773 7.52344H172.781ZM183.469 19.7812C182.609 19.7812 181.887 19.6055 181.301 19.2539C180.723 18.8945 180.258 18.418 179.906 17.8242C179.555 17.2305 179.301 16.5742 179.145 15.8555C178.988 15.1289 178.91 14.3984 178.91 13.6641C178.91 12.8828 178.988 12.1094 179.145 11.3438C179.301 10.5703 179.559 9.87109 179.918 9.24609C180.285 8.61328 180.777 8.10938 181.395 7.73438C182.012 7.35156 182.781 7.16016 183.703 7.16016C184.25 7.16016 184.758 7.24219 185.227 7.40625C185.695 7.57031 186.156 7.79688 186.609 8.08594L186.727 8.15625H186.785C186.809 8.13281 186.824 7.98828 186.832 7.72266C186.848 7.44922 186.855 7.11328 186.855 6.71484C186.863 6.30859 186.867 5.89844 186.867 5.48438C186.867 5.07031 186.867 4.70703 186.867 4.39453C186.867 4.07422 186.867 3.86328 186.867 3.76172C186.867 3.45703 186.863 3.15234 186.855 2.84766C186.848 2.53516 186.859 2.23047 186.891 1.93359C186.914 1.75391 186.953 1.62891 187.008 1.55859C187.07 1.48828 187.195 1.45312 187.383 1.45312H191.859C192.172 1.45312 192.328 1.61719 192.328 1.94531C192.328 2.42969 192.305 2.92187 192.258 3.42188C192.211 3.91406 192.18 4.40234 192.164 4.88672C192.125 5.90234 192.094 6.92578 192.07 7.95703C192.055 8.98047 192.047 10.0039 192.047 11.0273C192.047 11.918 192.055 12.8086 192.07 13.6992C192.086 14.582 192.109 15.4688 192.141 16.3594C192.156 16.7812 192.18 17.207 192.211 17.6367C192.242 18.0664 192.258 18.4922 192.258 18.9141C192.258 19.2422 192.102 19.4062 191.789 19.4062H187.113C186.934 19.4062 186.844 19.3008 186.844 19.0898C186.844 19.0352 186.844 18.9688 186.844 18.8906C186.852 18.8125 186.836 18.7578 186.797 18.7266L186.715 18.7148L186.609 18.7734C186.109 19.0859 185.609 19.332 185.109 19.5117C184.617 19.6914 184.07 19.7812 183.469 19.7812ZM185.543 15.3633C185.793 15.3633 186.039 15.3008 186.281 15.1758C186.523 15.043 186.707 14.8672 186.832 14.6484C186.824 14.1406 186.816 13.6328 186.809 13.125C186.809 12.6094 186.809 12.0977 186.809 11.5898C186.645 11.4336 186.449 11.2969 186.223 11.1797C186.004 11.0547 185.777 10.9922 185.543 10.9922C185.246 10.9922 185.004 11.125 184.816 11.3906C184.629 11.6562 184.492 11.9609 184.406 12.3047C184.32 12.6484 184.277 12.9375 184.277 13.1719C184.277 13.4219 184.312 13.7227 184.383 14.0742C184.461 14.418 184.59 14.7188 184.77 14.9766C184.957 15.2344 185.215 15.3633 185.543 15.3633ZM197.168 5.17969C196.691 5.17969 196.238 5.06641 195.809 4.83984C195.379 4.60547 195.031 4.29297 194.766 3.90234C194.5 3.50391 194.367 3.05469 194.367 2.55469C194.367 2.05469 194.504 1.61328 194.777 1.23047C195.051 0.847656 195.402 0.546875 195.832 0.328125C196.27 0.109375 196.723 0 197.191 0C197.684 0 198.141 0.113281 198.562 0.339844C198.992 0.566406 199.336 0.878906 199.594 1.27734C199.852 1.67578 199.98 2.12891 199.98 2.63672C199.98 3.11328 199.84 3.54688 199.559 3.9375C199.285 4.32031 198.934 4.625 198.504 4.85156C198.074 5.07031 197.629 5.17969 197.168 5.17969ZM194.543 11.5664C194.543 11.1523 194.543 10.7422 194.543 10.3359C194.543 9.92969 194.539 9.52344 194.531 9.11719C194.531 8.91406 194.527 8.70703 194.52 8.49609C194.52 8.28516 194.523 8.08203 194.531 7.88672C194.555 7.57422 194.711 7.41797 195 7.41797H199.066C199.387 7.41797 199.547 7.57422 199.547 7.88672C199.547 8.50391 199.543 9.11719 199.535 9.72656C199.527 10.3359 199.523 10.9492 199.523 11.5664C199.523 12.793 199.539 14.0195 199.57 15.2461C199.602 16.4727 199.617 17.6992 199.617 18.9258C199.617 19.2461 199.457 19.4062 199.137 19.4062H194.93C194.617 19.4062 194.461 19.2461 194.461 18.9258C194.461 17.6992 194.473 16.4727 194.496 15.2461C194.527 14.0195 194.543 12.793 194.543 11.5664Z" fill="white"/>
</svg>
