<svg width="242" height="182" viewBox="0 0 242 182" fill="none" xmlns="http://www.w3.org/2000/svg">
<path d="M91.1533 0.463867C93.996 0.463867 96.6136 0.689804 98.9688 2.20996C101.329 3.73254 103.023 6.54119 104.454 9.31055L104.456 9.31348L135.109 67.5566L135.526 68.3477L135.933 67.5508L151.259 37.5234C152.654 34.8207 154.346 32.878 156.745 31.3291C159.177 29.7592 161.826 28.6739 164.56 28.6738C167.317 28.6738 170.774 29.7755 173.182 31.3291C175.58 32.8779 177.273 34.8199 178.668 37.5225L239.168 154.913V154.914C240.574 157.634 241.535 160.698 241.536 163.8C241.537 166.9 240.573 169.965 239.168 172.687C237.798 175.341 235.334 177.292 232.875 178.88V178.881C230.442 180.452 227.795 181.536 225.06 181.536H136.27L150.327 153.344H209.689L209.338 152.666L164.972 67.127L164.559 66.3301L164.147 67.1279L149.628 95.3379L149.627 95.3389L122.2 149.029C116.55 159.694 109.689 167.816 101.482 173.272C93.278 178.728 83.704 181.536 72.5996 181.536H16.1338C13.3988 181.536 10.7515 180.452 8.31836 178.881C5.8594 177.293 3.39548 175.341 2.02539 172.687C0.653141 170.028 0.462629 166.989 0.463867 163.8C0.465121 160.608 0.651311 157.571 2.02539 154.914V154.913L77.0459 9.31055C78.3549 6.77714 80.6316 4.11328 82.8877 2.51465L83.3379 2.20996C85.693 0.689862 88.3103 0.463883 91.1533 0.463867ZM90.7412 38.0078L31.8535 152.668L31.5068 153.344H71.7939C78.4963 153.344 84.0618 152.199 88.9111 149.268C93.7585 146.337 97.8427 141.65 101.637 134.65L101.229 134.43L101.638 134.65L101.643 134.64L121.413 95.7598L121.521 95.5469L121.411 95.3359L91.5654 38.0059L91.1504 37.21L90.7412 38.0078Z" fill="url(#paint0_linear_1_447)" stroke="#FCA326" stroke-width="0.927577"/>
<defs>
<linearGradient id="paint0_linear_1_447" x1="121" y1="0" x2="121" y2="182" gradientUnits="userSpaceOnUse">
<stop stop-color="#FFB12B"/>
<stop offset="1" stop-color="#4D412F"/>
</linearGradient>
</defs>
</svg>
