<svg width="104" height="78" viewBox="0 0 104 78" fill="none" xmlns="http://www.w3.org/2000/svg">
<path d="M39.0654 0.199219C40.2837 0.199219 41.4057 0.29577 42.415 0.947266C43.4264 1.59982 44.1534 2.80332 44.7666 3.99023V3.99121L57.9043 28.9531L58.083 29.292L58.2568 28.9502L64.8242 16.0801L64.8252 16.0811C65.4232 14.9228 66.1487 14.0905 67.1768 13.4268C68.219 12.754 69.3538 12.2891 70.5254 12.2891C71.7072 12.2891 73.1888 12.7609 74.2207 13.4268C75.2485 14.0906 75.9745 14.9228 76.5723 16.0811L102.5 66.3916H102.501C103.104 67.5571 103.515 68.871 103.516 70.2002C103.516 71.5286 103.103 72.8427 102.501 74.0088C101.914 75.1466 100.858 75.9827 99.8037 76.6631C98.7611 77.3363 97.6263 77.8008 96.4541 77.8008H58.4014L64.4258 65.7188H89.8672L89.7168 65.4287L70.7021 28.7686L70.5254 28.4268L70.3486 28.7695L64.126 40.8594L52.373 63.8672C49.9515 68.4392 47.0099 71.9208 43.4922 74.2598C39.9761 76.5976 35.8732 77.8008 31.1143 77.8008H6.91406C5.74195 77.8007 4.60721 77.3363 3.56445 76.6631C2.51078 75.9828 1.45531 75.1463 0.868164 74.0088C0.280067 72.8693 0.198699 71.567 0.199219 70.2002C0.199756 68.8324 0.279202 67.5304 0.868164 66.3916L33.0195 3.99023C33.6178 2.83231 34.6879 1.61082 35.7158 0.947266C36.7251 0.295844 37.8471 0.19924 39.0654 0.199219ZM38.8887 16.2891L13.6514 65.4287L13.5029 65.7188H30.7686C33.641 65.7188 36.0262 65.228 38.1045 63.9717C40.182 62.7158 41.9326 60.7068 43.5586 57.707L43.5615 57.7031L52.0342 41.04L52.0811 40.9492L52.0332 40.8584L39.2422 16.2881L39.0645 15.9473L38.8887 16.2891Z" fill="#FFB12B" stroke="#FCA326" stroke-width="0.397533"/>
</svg>
