<svg width="45" height="45" viewBox="0 0 45 45" fill="none" xmlns="http://www.w3.org/2000/svg">
<path d="M22.5 0C18.0499 0 13.6998 1.3196 9.99968 3.79193C6.29957 6.26426 3.41569 9.77828 1.71272 13.8896C0.0097489 18.001 -0.435826 22.525 0.432341 26.8895C1.30051 31.2541 3.44342 35.2632 6.59011 38.4099C9.73679 41.5566 13.7459 43.6995 18.1105 44.5677C22.475 45.4358 26.999 44.9902 31.1104 43.2873C35.2217 41.5843 38.7357 38.7004 41.2081 35.0003C43.6804 31.3002 45 26.9501 45 22.5C44.9937 16.5346 42.6211 10.8153 38.4029 6.59705C34.1847 2.37885 28.4654 0.00629961 22.5 0ZM22.5 41.5385C18.7346 41.5385 15.0537 40.4219 11.9228 38.3299C8.79195 36.2379 6.35174 33.2645 4.91076 29.7857C3.46979 26.3069 3.09276 22.4789 3.82737 18.7858C4.56197 15.0927 6.37521 11.7003 9.03778 9.03777C11.7004 6.3752 15.0927 4.56196 18.7858 3.82736C22.4789 3.09275 26.3069 3.46978 29.7857 4.91075C33.2645 6.35173 36.2379 8.79194 38.3299 11.9228C40.4219 15.0537 41.5385 18.7345 41.5385 22.5C41.5327 27.5476 39.5251 32.3867 35.9559 35.9559C32.3867 39.5251 27.5476 41.5327 22.5 41.5385ZM32.9365 21.0332L19.0904 12.3793C18.8285 12.2156 18.5275 12.125 18.2187 12.1168C17.91 12.1087 17.6046 12.1833 17.3344 12.333C17.0642 12.4827 16.839 12.7019 16.6821 12.968C16.5253 13.2341 16.4425 13.5373 16.4423 13.8462V31.1538C16.4425 31.4627 16.5253 31.7659 16.6821 32.032C16.839 32.2981 17.0642 32.5173 17.3344 32.667C17.6046 32.8167 17.91 32.8913 18.2187 32.8831C18.5275 32.875 18.8285 32.7844 19.0904 32.6207L32.9365 23.9668C33.1851 23.8112 33.39 23.5949 33.5321 23.3383C33.6741 23.0817 33.7486 22.7933 33.7486 22.5C33.7486 22.2067 33.6741 21.9183 33.5321 21.6617C33.39 21.4051 33.1851 21.1888 32.9365 21.0332ZM19.9039 28.032V16.968L28.7546 22.5L19.9039 28.032Z" fill="#E3CF65"/>
</svg>
