<svg width="80" height="80" viewBox="0 0 80 80" fill="none" xmlns="http://www.w3.org/2000/svg">
<path d="M48.1601 54.1333C46.3752 56.6714 44.4301 59.093 42.3367 61.3833C47.9101 66.7933 53.0967 69.3266 55.9701 67.6633C58.8501 66.0033 59.2467 60.2466 57.3501 52.7166C54.5067 53.3499 51.4167 53.8299 48.1601 54.1333ZM43.7934 54.4233C41.2656 54.5279 38.7345 54.5279 36.2067 54.4233C37.4634 56.0633 38.7334 57.5833 40.0001 58.97C41.2667 57.5833 42.5334 56.0633 43.7934 54.4233ZM60.5934 28.1099C69.4767 30.6566 75.2767 34.8899 75.2767 39.9999C75.2767 45.11 69.4767 49.3433 60.5934 51.8899C62.8267 60.8566 62.0634 67.9966 57.6401 70.55C53.2134 73.1066 46.6467 70.2 40.0001 63.7833C33.3534 70.2 26.7867 73.1066 22.3601 70.55C17.9367 67.9966 17.1701 60.8566 19.4067 51.8899C10.5234 49.3433 4.72339 45.11 4.72339 39.9999C4.72339 34.8899 10.5234 30.6566 19.4067 28.1099C17.1734 19.1433 17.9367 12.0033 22.3601 9.44995C26.7867 6.89328 33.3534 9.79995 40.0001 16.2166C46.6467 9.79995 53.2134 6.89328 57.6401 9.44995C62.0634 12.0033 62.8301 19.1433 60.5934 28.1099ZM57.3501 27.2833C59.2501 19.7499 58.8501 13.9966 55.9734 12.3366C53.0967 10.6733 47.9101 13.2066 42.3401 18.6166C44.3101 20.7599 46.2701 23.1966 48.1601 25.8666C51.4201 26.1666 54.5067 26.6466 57.3501 27.2833ZM22.6501 52.7166C20.7501 60.25 21.1501 66.0033 24.0267 67.6633C26.9034 69.3266 32.0901 66.7933 37.6601 61.3833C35.5678 59.0929 33.6239 56.6713 31.8401 54.1333C28.7497 53.857 25.6801 53.3839 22.6501 52.7166ZM36.2067 25.5766C38.7345 25.472 41.2656 25.472 43.7934 25.5766C42.5951 24.0082 41.3295 22.4923 40.0001 21.0333C38.7334 22.4199 37.4667 23.9366 36.2067 25.5766ZM31.8401 25.8666C33.626 23.3284 35.5722 20.9068 37.6667 18.6166C32.0901 13.2066 26.9001 10.6733 24.0301 12.3366C21.1501 13.9966 20.7534 19.7533 22.6501 27.2833C25.4934 26.6499 28.5834 26.1699 31.8401 25.8666ZM46.3134 50.9333C48.6862 47.4511 50.7954 43.7965 52.6234 39.9999C50.7954 36.2034 48.6862 32.5488 46.3134 29.0666C42.1104 28.7519 37.8897 28.7519 33.6867 29.0666C31.3139 32.5488 29.2047 36.2034 27.3767 39.9999C29.2047 43.7965 31.3139 47.4511 33.6867 50.9333C37.8897 51.248 42.1104 51.248 46.3134 50.9333ZM50.5934 50.4966C52.6434 50.2299 54.5934 49.8866 56.4267 49.4833C55.8272 47.6025 55.1466 45.7485 54.3867 43.9266C53.2134 46.1669 51.9478 48.3576 50.5934 50.4933V50.4966ZM29.4067 29.4999C27.3567 29.7666 25.4067 30.1099 23.5734 30.5133C24.1401 32.2999 24.8201 34.16 25.6134 36.07C26.7868 33.8297 28.0523 31.6356 29.4067 29.4999ZM23.5734 49.4799C25.4067 49.8833 27.3567 50.2233 29.4067 50.4933C28.0523 48.3576 26.7868 46.1669 25.6134 43.9266C24.8201 45.8333 24.1401 47.6933 23.5734 49.4799ZM20.3134 48.6633C21.1834 45.8833 22.3134 42.9699 23.6801 39.9966C22.3134 37.0233 21.1834 34.1099 20.3134 31.3299C12.8401 33.4533 8.05672 36.6766 8.05672 39.9966C8.05672 43.3166 12.8401 46.54 20.3134 48.6633ZM56.4267 30.5133C54.5934 30.1099 52.6434 29.7699 50.5934 29.4999C51.9478 31.6356 53.2134 33.8264 54.3867 36.0666C55.1801 34.1599 55.8601 32.2999 56.4267 30.5133ZM59.6867 31.3299C58.8167 34.1099 57.6867 37.0233 56.3201 39.9966C57.6867 42.9699 58.8167 45.8833 59.6867 48.6633C67.1601 46.54 71.9434 43.3166 71.9434 39.9966C71.9434 36.6766 67.1601 33.4533 59.6867 31.3299ZM40.0001 46.2666C39.1771 46.2666 38.3622 46.1045 37.6019 45.7896C36.8416 45.4747 36.1508 45.0131 35.5689 44.4312C34.9869 43.8492 34.5253 43.1584 34.2104 42.3981C33.8955 41.6378 33.7334 40.8229 33.7334 39.9999C33.7334 39.177 33.8955 38.3621 34.2104 37.6018C34.5253 36.8415 34.9869 36.1507 35.5689 35.5687C36.1508 34.9868 36.8416 34.5252 37.6019 34.2103C38.3622 33.8954 39.1771 33.7333 40.0001 33.7333C41.6621 33.7333 43.256 34.3935 44.4313 35.5687C45.6065 36.744 46.2667 38.3379 46.2667 39.9999C46.2667 41.662 45.6065 43.2559 44.4313 44.4312C43.256 45.6064 41.6621 46.2666 40.0001 46.2666Z" fill="#FFB12B"/>
</svg>
