<svg width="188" height="170" viewBox="0 0 188 170" fill="none" xmlns="http://www.w3.org/2000/svg">
<path d="M56.9862 18.7879C54.0377 20.4902 50.9348 25.1847 50.5748 35.4247C50.4037 40.2888 46.322 44.0932 41.4581 43.9221C36.5941 43.751 32.7897 39.6694 32.9606 34.8054C33.4021 22.2516 37.372 9.7605 48.1737 3.52419C59.006 -2.72983 71.8494 0.11018 82.97 6.04292C87.2642 8.33382 88.8881 13.6721 86.5972 17.9661C84.3064 22.2603 78.9681 23.8842 74.6741 21.5935C65.5861 16.7452 59.9436 17.0804 56.9862 18.7879ZM104.239 34.0734C107.987 30.9683 113.542 31.4894 116.647 35.2373C123.161 43.0996 129.41 52.0651 135.082 61.8896C147.305 83.0599 154.841 104.75 156.873 122.943C157.887 132.024 157.577 140.667 155.456 148.078C153.319 155.547 149.156 162.307 142.174 166.337C133.727 171.214 123.973 170.522 115.046 167.272C106.087 164.01 96.8664 157.833 88.0763 149.81C84.4817 146.529 84.2276 140.954 87.5088 137.36C90.79 133.766 96.364 133.511 99.9586 136.793C107.703 143.861 114.982 148.491 121.076 150.71C127.202 152.941 131.056 152.405 133.361 151.074C135.293 149.958 137.236 147.686 138.511 143.229C139.803 138.717 140.21 132.539 139.357 124.898C137.654 109.645 131.119 90.2763 119.818 70.7021C114.62 61.699 108.932 53.5515 103.075 46.4816C99.9698 42.7337 100.491 37.1783 104.239 34.0734Z" fill="url(#paint0_linear_2017_115)"/>
<path d="M170.375 87.3326C170.375 83.9279 167.861 78.8935 159.173 73.4617C155.046 70.8816 153.792 65.4445 156.373 61.3177C158.953 57.1909 164.39 55.937 168.516 58.5171C179.168 65.1763 188 74.8599 188 87.3326C188 99.8407 179.119 109.543 168.421 116.207C164.29 118.781 158.854 117.519 156.281 113.387C153.708 109.256 154.971 103.821 159.101 101.248C167.844 95.8017 170.375 90.7475 170.375 87.3326ZM133.511 120.611C134.326 125.41 131.097 129.961 126.298 130.776C116.233 132.486 105.344 133.414 94 133.414C69.5546 133.414 47.0021 129.097 30.2311 121.759C21.8588 118.097 14.5299 113.507 9.17122 107.965C3.77148 102.379 0 95.3941 0 87.3326C0 77.5791 5.47646 69.4775 12.7544 63.3718C20.0587 57.2441 30.0178 52.347 41.3615 48.7464C46.0005 47.274 50.9547 49.8409 52.4272 54.4798C53.8996 59.1187 51.3327 64.073 46.6938 65.5455C36.6992 68.7178 29.0507 72.7063 24.0821 76.8746C19.0869 81.0651 17.625 84.6702 17.625 87.3326C17.625 89.5626 18.6209 92.3819 21.8427 95.7143C25.1054 99.0891 30.252 102.531 37.2956 105.612C51.3564 111.763 71.3976 115.789 94 115.789C104.396 115.789 114.296 114.937 123.347 113.399C128.145 112.585 132.696 115.814 133.511 120.611Z" fill="url(#paint1_linear_2017_115)"/>
<path d="M57.2447 151.074C60.1933 152.776 65.8102 153.116 74.8583 148.308C79.1562 146.024 84.4918 147.657 86.7756 151.954C89.0596 156.252 87.4269 161.588 83.129 163.872C72.0364 169.766 59.2339 172.574 48.4322 166.337C37.6 160.084 33.6378 147.54 33.2154 134.943C33.0523 130.079 36.8633 126.004 41.7275 125.841C46.5918 125.677 50.6674 129.488 50.8305 134.352C51.1757 144.648 54.2874 149.366 57.2447 151.074ZM46.8561 102.509C42.2931 100.816 39.9667 95.7439 41.66 91.1809C45.212 81.6088 49.8518 71.7142 55.524 61.8898C67.7467 40.7195 82.7621 23.3472 97.5019 12.4917C104.86 7.07241 112.499 3.02007 119.979 1.15077C127.515 -0.732884 135.451 -0.506426 142.432 3.52438C150.879 8.4011 155.157 17.1947 156.806 26.5504C158.46 35.9399 157.722 47.0132 155.168 58.6376C154.123 63.3912 149.423 66.3983 144.67 65.3541C139.916 64.3097 136.909 59.6096 137.954 54.8559C140.203 44.6142 140.573 35.9962 139.449 29.609C138.317 23.1879 135.925 20.1193 133.619 18.7881C131.689 17.673 128.749 17.1259 124.252 18.2498C119.698 19.3881 114.144 22.1243 107.954 26.6833C95.5958 35.7846 82.0889 51.128 70.7878 70.7023C65.5898 79.7053 61.378 88.7053 58.1839 97.3128C56.4906 101.876 51.4189 104.202 46.8561 102.509Z" fill="url(#paint2_linear_2017_115)"/>
<path d="M111.146 85.6953C111.146 94.5167 103.995 101.668 95.1732 101.668C86.3517 101.668 79.2006 94.5167 79.2006 85.6953C79.2006 76.8738 86.3517 69.7227 95.1732 69.7227C103.995 69.7227 111.146 76.8738 111.146 85.6953Z" fill="url(#paint3_linear_2017_115)"/>
<defs>
<linearGradient id="paint0_linear_2017_115" x1="95.1929" y1="0" x2="95.1929" y2="169.853" gradientUnits="userSpaceOnUse">
<stop stop-color="#FFB12B"/>
<stop offset="1" stop-color="#876D40"/>
</linearGradient>
<linearGradient id="paint1_linear_2017_115" x1="94" y1="48.3311" x2="94" y2="133.414" gradientUnits="userSpaceOnUse">
<stop stop-color="#FFB12B"/>
<stop offset="1" stop-color="#876D40"/>
</linearGradient>
<linearGradient id="paint2_linear_2017_115" x1="95.4498" y1="0.0101318" x2="95.4498" y2="169.861" gradientUnits="userSpaceOnUse">
<stop stop-color="#FFB12B"/>
<stop offset="1" stop-color="#876D40"/>
</linearGradient>
<linearGradient id="paint3_linear_2017_115" x1="95.1732" y1="69.7227" x2="95.1732" y2="101.668" gradientUnits="userSpaceOnUse">
<stop stop-color="#FFB12B"/>
<stop offset="1" stop-color="#876D40"/>
</linearGradient>
</defs>
</svg>
