<svg width="63" height="82" viewBox="0 0 63 82" fill="none" xmlns="http://www.w3.org/2000/svg">
<path fill-rule="evenodd" clip-rule="evenodd" d="M47.5179 0.589452C52.7577 1.54895 58.014 3.90782 60.5621 8.76139C63.1878 13.7623 62.9126 18.6283 60.7295 22.7251C58.6661 26.5979 55.0721 29.4922 51.4502 31.4368C47.8017 33.3955 43.6893 34.6276 40.0839 34.8687C38.2891 34.9889 36.4021 34.8786 34.6878 34.3253C32.9624 33.7684 31.0643 32.6325 30.0119 30.5007C29.0087 28.4697 29.8421 26.0103 31.8731 25.0074C33.7781 24.0668 36.0597 24.7415 37.1633 26.5044C37.1769 26.5091 37.1912 26.5139 37.2068 26.519C37.6116 26.6496 38.379 26.762 39.5364 26.6845C41.836 26.5306 44.8209 25.6859 47.57 24.2098C50.3458 22.7197 52.4493 20.8215 53.4907 18.8678C54.4122 17.1381 54.6484 15.1437 53.2995 12.5742C52.4776 11.0083 50.2744 9.43323 46.0406 8.65792C41.9471 7.90832 36.7532 8.083 31.4211 9.19216C26.1029 10.2984 20.9084 12.2805 16.7907 14.9204C12.6328 17.5861 9.92284 20.6871 8.88156 23.901C7.75521 27.3776 8.15444 29.8245 9.16869 31.8342C10.2813 34.0386 12.3189 36.0803 15.1286 38.2659C16.4885 39.324 17.9323 40.3444 19.454 41.4202L19.5366 41.4788C21.0574 42.5538 22.6627 43.6902 24.1634 44.8751C25.427 45.873 26.7181 46.9803 27.9001 48.2263C33.2043 47.2034 37.7999 47.3146 41.5657 49.0371C46.4147 51.2547 48.8455 55.6251 49.989 60.5716C50.4992 62.7786 49.1236 64.981 46.9167 65.4912C44.7097 66.0014 42.5073 64.6258 41.9971 62.4189C41.1765 58.8676 39.8353 57.2656 38.1542 56.4966C36.9218 55.9331 35.0811 55.6119 32.3414 55.8609C34.8678 64.7414 30.4569 72.7837 25.0567 77.3394C22.1476 79.7937 18.5861 81.5823 15.026 81.9374C11.3024 82.3094 7.32408 81.0606 4.9897 77.1733C2.92822 73.741 2.91185 70.0912 3.98713 66.8413C5.02169 63.7149 7.06492 60.9006 9.30346 58.571C12.1169 55.6427 15.6556 53.0572 19.0116 51.2588C17.7276 50.2486 16.3224 49.2516 14.8018 48.1767L14.6563 48.0737C13.1811 47.0312 11.6027 45.9156 10.0919 44.7402C7.01144 42.3438 3.79523 39.3925 1.8458 35.5299C-0.201903 31.4725 -0.672774 26.7775 1.07828 21.3728C2.91444 15.7055 7.29447 11.2649 12.3637 8.01504C17.4731 4.73936 23.6425 2.43205 29.7506 1.16146C35.8443 -0.106171 42.1378 -0.395765 47.5179 0.589452ZM24.3463 57.7631C21.5853 59.016 17.9943 61.3648 15.2182 64.2538C13.4564 66.0879 12.2856 67.8732 11.7746 69.4182C11.3042 70.8397 11.4105 71.9327 12.0216 72.9502C12.3598 73.5133 12.8781 73.9087 14.2112 73.7754C15.7078 73.6261 17.7631 72.7612 19.7675 71.0702C23.6036 67.8338 25.9262 62.8278 24.3463 57.7631ZM37.0198 26.4452L37.0268 26.4491L37.0198 26.4452Z" fill="#FFB12B"/>
</svg>
